<?xml version="1.0" encoding="UTF-8"?><!DOCTYPE svg PUBLIC "-//W3C//DTD SVG 1.1//EN" "http://www.w3.org/Graphics/SVG/1.1/DTD/svg11.dtd"><svg xmlns="http://www.w3.org/2000/svg" xmlns:xlink="http://www.w3.org/1999/xlink"><defs>
    <style>
      .cls-1 {
        fill: #191a1b;
        fill-rule: evenodd;
      }
    </style>
  </defs><symbol id="arrow-down-btn" viewBox="0 0 12 7">
  <path d="M11.991,1.007A0.992,0.992,0,0,0,11.7.3a1,1,0,0,0-1.415,0L5.986,4.58,1.689,0.3A1,1,0,1,0,.274,1.715l5,4.979a1,1,0,0,0,1.415,0l5-4.982A0.993,0.993,0,0,0,11.991,1.007Z"/>
</symbol><symbol id="arrow-left-btn" viewBox="0 0 7 12">
  <path d="M5.989,0.009A1,1,0,0,1,6.7,1.717l-4.3,4.3,4.294,4.3a1,1,0,1,1-1.417,1.414l-5-5a1,1,0,0,1,0-1.415l5-5A1,1,0,0,1,5.989.009Z"/>
</symbol><symbol id="arrow-left" viewBox="0 0 12 20">
  <path d="M10.022,19.991a1,1,0,0,0,.707-1.709l-8.3-8.3,8.3-8.3A1,1,0,1,0,9.311.274l-9,9a1,1,0,0,0,0,1.415l9.007,9A1,1,0,0,0,10.022,19.991Z"/>
</symbol><symbol id="arrow-right-btn" viewBox="0 0 7 12">
    <path d="M-.02 1c0 .27.11.53.3.72l4.3 4.3-4.3 4.3c-.39.39-.39 1.02.01 1.41.39.39 1.02.39 1.41 0l5-5c.39-.39.39-1.02 0-1.41l-5-5C1.51.12 1.26.01.99.01.44.01-.01.45-.02 1z"/>
</symbol><symbol id="arrow-right-small" viewBox="0 0 5 8.03"><path d="M945.98,2585.01a1.018,1.018,0,0,0-.708.29,1.007,1.007,0,0,0,0,1.42l2.3,2.29-2.294,2.3a1,1,0,1,0,1.416,1.42l3-3.01a1,1,0,0,0,0-1.41l-3-3.01A1.022,1.022,0,0,0,945.98,2585.01Z" transform="translate(-945 -2585)"/></symbol><symbol id="arrow-right" viewBox="0 0 11 20">
  <path d="M1.007,19.991A0.992,0.992,0,0,1,.3,19.7a1,1,0,0,1,0-1.415l8.278-8.3L0.3,1.689A1,1,0,1,1,1.715.274l8.979,9a1,1,0,0,1,0,1.415l-8.982,9A0.993,0.993,0,0,1,1.007,19.991Z"/>
</symbol><symbol id="behance" viewBox="0 0 25 15.8415"><path d="m 22.595,0.72025 -6.62,0 0,1.92375 6.62,0 0,-1.92375 z m -5.05125,6.12 c -0.42125,0.435 -0.6875,1.025 -0.79625,1.7675 l 5.14875,0 C 21.84125,7.814 21.575,7.214 21.10125,6.80275 c -0.48,-0.41125 -1.07,-0.61625 -1.775,-0.61625 -0.765,0 -1.36,0.21875 -1.7825,0.65375 M 22.0125,4.259 c 0.7975,0.35625 1.455,0.92 1.9725,1.69125 0.4725,0.6775 0.775,1.465 0.9125,2.36125 0.08,0.52375 0.11375,1.28125 0.09875,2.2675 l -8.3225,0 c 0.04875,1.1475 0.44375,1.95125 1.19625,2.41 0.45625,0.2875 1.005,0.43125 1.6475,0.43125 0.6775,0 1.23125,-0.175 1.65625,-0.52375 0.23375,-0.18875 0.44,-0.45125 0.61625,-0.7875 l 3.05,0 c -0.08,0.6775 -0.45,1.36625 -1.10625,2.0675 -1.02375,1.11 -2.45625,1.665 -4.2975,1.665 -1.5225,0 -2.86375,-0.46625 -4.02375,-1.405 -1.16625,-0.9375 -1.74375,-2.46375 -1.74375,-4.57375 0,-1.98125 0.52375,-3.4975 1.57125,-4.55625 1.05125,-1.055 2.41125,-1.585 4.085,-1.585 0.995,0 1.89125,0.18 2.6875,0.5375 M 3.08,8.65025 l 0,4.12 3.75125,0 c 0.67,0 1.1925,-0.09125 1.565,-0.27125 C 9.075,12.1615 9.4125,11.519 9.4125,10.57025 9.4125,9.76525 9.08625,9.21275 8.42875,8.9115 8.06125,8.74525 7.54625,8.65525 6.885,8.65025 l -3.805,0 z m 0,-5.96625 0,3.41 3.7575,0 C 7.50625,6.094 8.05125,5.96525 8.47125,5.71025 8.88875,5.45525 9.09875,5.0015 9.09875,4.354 9.09875,3.6315 8.8225,3.15775 8.27,2.92525 7.79125,2.764 7.1825,2.684 6.44375,2.684 l -3.36375,0 z m 8.39,-1.03625 c 0.47125,0.6575 0.70875,1.4425 0.70875,2.35875 0,0.94125 -0.2375,1.70125 -0.71375,2.275 -0.26875,0.32 -0.66,0.615 -1.18,0.87875 0.7875,0.28875 1.3825,0.74375 1.785,1.365 0.40125,0.62 0.6025,1.37625 0.6025,2.26375 0,0.91625 -0.22875,1.7375 -0.69,2.4625 -0.29125,0.4825 -0.655,0.88875 -1.09375,1.21625 C 10.39625,14.8465 9.8175,15.104 9.145,15.244 8.47375,15.38525 7.7475,15.45275 6.96125,15.45275 l -6.96125,0 0,-15.4525 7.46625,0 C 9.35,0.029 10.68375,0.5765 11.47,1.64775"/></symbol><symbol id="book" viewBox="0 0 30 27.5">
  <path d="M13.75 1.38C12.25.5 10.37 0 8.12 0 3.5 0 0 2.13 0 5v21.25c0 .75.5 1.25 1.25 1.25S2.5 27 2.5 26.25c0-1 2.25-2.5 5.63-2.5 3.37 0 5.62 1.5 5.62 2.5V1.38zM21.88 0c-2.25 0-4.13.5-5.63 1.38v24.87c0-1 2.25-2.5 5.63-2.5 3.37 0 5.62 1.5 5.62 2.5 0 .75.5 1.25 1.25 1.25S30 27 30 26.25V5c0-2.88-3.5-5-8.13-5"/>
</symbol><symbol id="burger-btn" viewBox="0 0 16 12">
  <metadata><?xpacket begin="﻿" id="W5M0MpCehiHzreSzNTczkc9d"?>
<x:xmpmeta xmlns:x="adobe:ns:meta/" x:xmptk="Adobe XMP Core 5.6-c138 79.159824, 2016/09/14-01:09:01        ">
   <rdf:RDF xmlns:rdf="http://www.w3.org/1999/02/22-rdf-syntax-ns#">
      <rdf:Description rdf:about=""/>
   </rdf:RDF>
</x:xmpmeta>
                                                                                                    
                                                                                                    
                                                                                                    
                                                                                                    
                                                                                                    
                                                                                                    
                                                                                                    
                                                                                                    
                                                                                                    
                                                                                                    
                                                                                                    
                                                                                                    
                                                                                                    
                                                                                                    
                                                                                                    
                                                                                                    
                                                                                                    
                                                                                                    
                                                                                                    
                                                                                                    
                           
<?xpacket end="w"?></metadata>

  <path class="cls-1" d="M706,40h16v2H706V40Zm0,5h16v2H706V45Zm0,5h16v2H706V50Z" transform="translate(-706 -40)"/>
</symbol><symbol id="camera" viewBox="0 0 24 22"><path d="M23 3h-3.47L17.83.4A1.2 1.2 0 0 0 17 0h-6a1.2 1.2 0 0 0-.83.4L8.47 3H1a.97.97 0 0 0-1 1v17a.97.97 0 0 0 1 1h22a.97.97 0 0 0 1-1V4a.97.97 0 0 0-1-1zM5 9a1 1 0 1 1 1-1 .97.97 0 0 1-1 1zm9 8a5 5 0 1 1 5-5 4.98 4.98 0 0 1-5 5z"/></symbol><symbol id="checkbox" viewBox="0 0 17 16.75"><path d="M1.7 11.27A1 1 0 0 0 .27 12.7l3.3 3.3a2.36 2.36 0 0 0 1.32.75A1.84 1.84 0 0 0 6.4 16L16.7 1.7A1 1 0 0 0 15.3.26L4.9 14.46z"/></symbol><symbol id="close-btn" viewBox="0 0 12 12"><path d="M11 12a1 1 0 0 0 .7-1.72l-4.3-4.3 4.3-4.3a1 1 0 0 0-1.42-1.4l-4.3 4.28-.02 2.8 4.32 4.33a1 1 0 0 0 .7.3zM.97 12a1 1 0 0 1-.7-1.72l4.3-4.3-4.3-4.3a1 1 0 1 1 1.4-1.4L6 4.58v2.8l-4.3 4.3a1 1 0 0 1-.72.3z"/></symbol><symbol id="comments" viewBox="0 0 16 16"><path d="M331,992h-1v6a1,1,0,0,1-1,1h-6.172L321,1001h5l3,3v-3h2a1,1,0,0,0,1-1v-7A1,1,0,0,0,331,992Zm-14-4h10a1,1,0,0,1,1,1v7a1,1,0,0,1-1,1h-5l-3,3v-3h-2a1,1,0,0,1-1-1v-7A1,1,0,0,1,317,988Z" transform="translate(-316 -988)"/></symbol><symbol id="comparison-arrows" viewBox="0 0 16 8"><path d="M4 0L0 4l4 4V5h3V3H4V0zm8 0v3H9v2h3v3l4-4-4-4z" fill="currentColor"/></symbol><symbol id="computer" viewBox="0 0 28.710751 25"><path d="M23.1 13.75H5.6V2.5h17.5v11.25zm2.5 1V2.5c0-1.38-1.12-2.5-2.5-2.5H5.6C4.24 0 3.1 1.12 3.1 2.5v12.24L.2 21.52c-.33.77-.25 1.65.2 2.36.48.7 1.26 1.12 2.1 1.12h23.7c.85 0 1.63-.42 2.1-1.12.46-.7.54-1.6.2-2.36l-2.9-6.78z"/></symbol><symbol id="devices" viewBox="0 0 24 24"><path d="M1290,20203h-6a2.006,2.006,0,0,0-2,2v12a2.006,2.006,0,0,0,2,2h6a2.006,2.006,0,0,0,2-2v-12A2.006,2.006,0,0,0,1290,20203Zm0,12h-6v-10h6v10Zm-1-20h-19a2.006,2.006,0,0,0-2,2v14a2.006,2.006,0,0,0,2,2h10v-3h-5a0.972,0.972,0,0,1-1-1v-10a0.972,0.972,0,0,1,1-1h12a0.972,0.972,0,0,1,1,1v2h3v-4A2.006,2.006,0,0,0,1289,20195Zm-18,10a1,1,0,1,1,1-1A0.972,0.972,0,0,1,1271,20205Z" transform="translate(-1268 -20195)"/></symbol><symbol id="dribble" viewBox="0 0 25 25"><path d="m 15.734875,12.04525 c -0.07375,-0.1825 -0.15,-0.36625 -0.22875,-0.5525 -0.2225,-0.52125 -0.46125,-1.04 -0.71125,-1.5475 4.2175,-1.72125 5.93,-4.19625 5.9475,-4.22625 1.49875,1.81875 2.4025,4.14125 2.43,6.67375 -0.15625,-0.0325 -3.76875,-0.80875 -7.4375,-0.3475 m 2.72875,9.3075 c -0.1075,-0.64375 -0.6775,-3.775 -2.07625,-7.6225 3.44625,-0.5525 6.43125,0.39375 6.65,0.46625 -0.4725,2.9725 -2.175,5.53875 -4.57375,7.15625 m -5.96375,1.8225 c -2.47625,0 -4.74375,-0.86125 -6.555,-2.27375 0,0.0025 -0.00625,0.015 -0.00625,0.015 0,0 -0.0975,-0.0725 -0.2375,-0.18625 0.07625,0.06125 0.16625,0.1075 0.24375,0.17125 0.08,-0.1675 2.16375,-4.4925 8.37125,-6.6525 0.02375,-0.01 0.045,-0.01625 0.07,-0.025 1.50125,3.90375 2.12375,7.1725 2.28,8.10625 -1.27875,0.54625 -2.68875,0.845 -4.16625,0.845 M 4.557375,19.629 c 0,0 0.0025,0.0025 0.0025,0.0062 0,-0.0038 -0.00375,-0.0062 -0.00375,-0.0062 -1.69625,-1.88875 -2.73125,-4.38875 -2.73125,-7.12875 0,-0.11375 0.00625,-0.22625 0.00875,-0.33625 0.19,0.0038 5.4625,0.1225 10.95875,-1.5225 0.30625,0.59875 0.59875,1.20875 0.8675,1.81625 -0.14375,0.03875 -0.28125,0.0825 -0.42125,0.125 -5.7575,1.86125 -8.67875,7.04 -8.6825,7.04625 l 0.00125,0 z M 7.943625,2.84775 c 0.14375,0.18875 2.1175,2.865 3.96375,6.14875 -5.12375,1.36125 -9.5725,1.30875 -9.85375,1.30375 0.6925,-3.305 2.915,-6.04875 5.89,-7.4525 M 9.942375,2.1365 9.939875,2.139 c 0,0 -0.0125,0.00375 -0.03125,0.00625 0.01,-0.0025 0.0225,-0.00625 0.03375,-0.00875 m 2.5575,-0.31125 c 2.70125,0 5.17,1.00625 7.05,2.66375 -0.0275,0.0425 -1.5475,2.35625 -5.57625,3.86625 -1.825,-3.35375 -3.83,-6.0175 -3.98875,-6.22875 0.80625,-0.195 1.64875,-0.30125 2.515,-0.30125 m 12.24375,8.16 c -0.16125,-0.8025 -0.40875,-1.59625 -0.73,-2.35 -0.31125,-0.74125 -0.69875,-1.455 -1.15,-2.12375 -0.44875,-0.6625 -0.96125,-1.285 -1.52625,-1.84875 -0.56375,-0.565 -1.18625,-1.0775 -1.84875,-1.52625 -0.66875,-0.4525 -1.3825,-0.84 -2.12375,-1.15375 -0.75375,-0.3175 -1.545,-0.565 -2.35,-0.72625 -0.82125,-0.17125 -1.67,-0.25625 -2.515,-0.25625 -0.84875,0 -1.69375,0.085 -2.5175,0.25625 -0.8025,0.16125 -1.59375,0.40875 -2.35,0.72625 -0.73875,0.31375 -1.45625,0.70125 -2.12375,1.15375 -0.65875,0.44875 -1.2825,0.96125 -1.85,1.52625 -0.56375,0.56375 -1.0775,1.18625 -1.5225,1.84875 -0.45125,0.66875 -0.83875,1.3825 -1.15375,2.12375 -0.32,0.75375 -0.56375,1.5475 -0.72875,2.35 -0.16875,0.82125 -0.25375,1.67 -0.25375,2.515 0,0.8475 0.085,1.69625 0.25375,2.5175 0.165,0.8025 0.40875,1.5925 0.72875,2.35 0.315,0.73875 0.7025,1.455 1.15375,2.12375 0.445,0.6625 0.95875,1.28125 1.5225,1.85 0.5675,0.56375 1.19125,1.07625 1.85,1.5225 0.6675,0.45125 1.385,0.83875 2.12375,1.15375 0.75625,0.32 1.5475,0.56375 2.35,0.72875 0.82375,0.16875 1.66875,0.25375 2.5175,0.25375 0.845,0 1.69375,-0.085 2.515,-0.25375 0.805,-0.165 1.59625,-0.40875 2.35,-0.72875 0.74125,-0.315 1.455,-0.7025 2.12375,-1.15375 0.6625,-0.44625 1.285,-0.95875 1.84875,-1.5225 0.565,-0.56875 1.0775,-1.1875 1.52625,-1.85 0.45125,-0.66875 0.83875,-1.385 1.15,-2.12375 0.32125,-0.7575 0.56875,-1.5475 0.73,-2.35 0.17125,-0.82125 0.25625,-1.67 0.25625,-2.5175 0,-0.845 -0.085,-1.69375 -0.25625,-2.515"/></symbol><symbol id="external-link" viewBox="0 0 20 20"><path stroke="0" d="M 8.75,18.750125 6.50875,15.258875 1.7675,20.000125 0,18.232625 l 4.74125,-4.7425 -3.49125,-2.24 10,-2.5 -2.5,10 z"/><path d="m 11.25,20 7.5,0 C 19.44,20 20,19.44 20,18.75 L 20,1.25 C 20,0.56 19.44,0 18.75,0 L 1.25,0 C 0.56,0 0,0.56 0,1.25 l 0,7.5 2.5,0 0,-6.25 15,0 0,15 -6.25,0 0,2.5 z"/></symbol><symbol id="facebook" viewBox="0 0 18.589001 40"><path d="m 17.8615,20.01475 -5.605,0 0,19.985 -8.30625,0 0,-19.985 -3.95,0 0,-7.06125 3.95,0 0,-4.57 c 0,-3.26625 1.5525,-8.38375 8.38125,-8.38375 l 6.1525,0.025 0,6.855 -4.465,0 c -0.7275,0 -1.7625,0.36625 -1.7625,1.92375 l 0,4.15 6.3325,0 -0.7275,7.06125 z"/></symbol><symbol id="google-plus" viewBox="0 0 50 32.548374"><path d="M.0505 15.575625c.1925-8.4525 7.685-15.75375 15.945-15.56125 3.8425-.1925 7.685 1.5375 10.56625 4.035-1.345 1.53625-2.68875 2.88125-4.03375 4.22625-3.65-2.4975-8.8375-3.26625-12.295-.1925-5.1875 3.65-5.38 12.295-.57625 16.1375 4.8025 4.41875 14.02375 2.305 15.36875-4.61-3.07375 0-6.1475 0-9.03-.1925l0-5.57125 15.1775 0c.38375 4.41875-.1925 9.02875-2.88125 12.67875-4.035 5.76375-11.91125 7.30125-18.05875 4.995-6.34-2.305-10.75875-9.02875-10.1825-15.945M40.970625 9.236l4.41875 0 0 4.61125 4.61 0 0 4.61-4.61 0 0 4.61125-4.41875 0 0-4.61125-4.61125 0 0-4.61 4.61125 0 0-4.61125z"/></symbol><symbol id="info" viewBox="0 0 30 30"><path d="m 18.75,22.5 -7.5,0 0,-2.5 2.5,0 0,-5 -2.5,0 0,-2.5 3.75,0 c 0.69125,0 1.25,0.56 1.25,1.25 l 0,6.25 2.5,0 0,2.5 z M 15,7.5 c 0.69,0 1.25,0.56 1.25,1.25 C 16.25,9.44 15.69,10 15,10 14.31,10 13.75,9.44 13.75,8.75 13.75,8.06 14.31,7.5 15,7.5 M 15,0 C 6.72875,0 0,6.72875 0,15 0,23.27125 6.72875,30 15,30 23.27125,30 30,23.27125 30,15 30,6.72875 23.27125,0 15,0"/></symbol><symbol id="likes" viewBox="0 0 16 14"><path d="M254.68,989.306a4.506,4.506,0,0,0-6.368,0,4.633,4.633,0,0,0-.318.39,4.633,4.633,0,0,0-.318-0.39,4.5,4.5,0,0,0-6.368,6.365l6.686,6.319,6.686-6.319A4.5,4.5,0,0,0,254.68,989.306Z" transform="translate(-240 -988)"/></symbol><symbol id="microphone" viewBox="0 0 20 24"><path d="M10 16a6.02 6.02 0 0 0 6-6V6A6 6 0 0 0 4 6v4a6.02 6.02 0 0 0 6 6zm10-6a1 1 0 0 0-2 0 8 8 0 0 1-16 0 1 1 0 0 0-2 0 9.98 9.98 0 0 0 9 9.9V22H5a1 1 0 0 0 0 2h10a1 1 0 0 0 0-2h-4v-2.1a9.98 9.98 0 0 0 9-9.9z"/></symbol><symbol id="pinterest" viewBox="0 0 15.483375 20.000126"><path d="m 9.28475,14.454375 c -1.24,0 -2.4075,-0.67 -2.80625,-1.4325 0,0 -0.6675,2.6475 -0.80875,3.15875 -0.4975,1.805 -1.96125,3.6125 -2.07375,3.75875 -0.07875,0.10375 -0.255,0.07 -0.27375,-0.065 -0.03125,-0.23125 -0.405,-2.50875 0.035,-4.36625 0.22125,-0.9325 1.4775,-6.26 1.4775,-6.26 0,0 -0.3675,-0.7325 -0.3675,-1.81625 0,-1.70375 0.98875,-2.97375 2.2175,-2.97375 1.045,0 1.5475,0.78375 1.5475,1.72375 0,1.05125 -0.6675,2.62125 -1.0125,4.0775 -0.28875,1.2175 0.61,2.21125 1.8125,2.21125 2.17625,0 3.6425,-2.795 3.6425,-6.1075 0,-2.5175 -1.69625,-4.4025 -4.78,-4.4025 -3.48375,0 -5.65625,2.6 -5.65625,5.5025 0,1.00125 0.29625,1.70625 0.75875,2.2525 0.2125,0.25125 0.24125,0.3525 0.165,0.64125 -0.05625,0.21125 -0.18125,0.72 -0.235,0.92125 -0.075,0.29125 -0.3125,0.39375 -0.575,0.28625 -1.605,-0.65375 -2.3525,-2.41125 -2.3525,-4.3875 0,-3.26375 2.75125,-7.17625 8.21125,-7.17625 4.385,0 7.2725,3.17375 7.2725,6.58125 0,4.50625 -2.50625,7.8725 -6.19875,7.8725"/></symbol><symbol id="route" viewBox="0 0 24 23"><path d="M1275,20975.4h3v2h-3v-2Zm5,5.9a3.95,3.95,0,1,1-4,3.9A3.986,3.986,0,0,1,1280,20981.3Zm-6.5,11.8a3.45,3.45,0,1,1,0-6.9h0.5v-2h-0.5a5.45,5.45,0,1,0,0,10.9h7.09l-2,1.9,1.41,1.4,5.41-5.3H1273.5Zm13-17.7H1280v2h6.5a3.4,3.4,0,1,1,0,6.8H1286v2h0.5A5.4,5.4,0,1,0,1286.5,20975.4Z" transform="translate(-1268 -20975.4)"/></symbol><symbol id="twitter" viewBox="0 0 40 32.504749"><path d="m 35.90575,8.09575 c 0.0175,0.35125 0.025,0.7025 0.025,1.06 0,10.84375 -8.255,23.34875 -23.35,23.34875 -4.63625,0 -8.9475,-1.3575 -12.58125,-3.68625 0.645,0.07875 1.2975,0.1125 1.95875,0.1125 3.8475,0 7.3825,-1.30875 10.19,-3.51125 C 8.5595,25.357 5.527,22.98325 4.4845,19.722 c 0.50125,0.0975 1.01375,0.14625 1.54375,0.14625 0.74875,0 1.47375,-0.0975 2.16,-0.28875 C 4.43825,18.82825 1.607,15.50825 1.607,11.53325 l 0,-0.1025 c 1.1075,0.615 2.3725,0.98625 3.7175,1.025 -2.2025,-1.47 -3.65,-3.98375 -3.65,-6.83125 0,-1.50375 0.405,-2.91 1.11125,-4.125 4.045,4.965 10.095,8.2325 16.91375,8.57375 -0.13875,-0.6 -0.2125,-1.225 -0.2125,-1.87 0,-4.53125 3.675,-8.20375 8.20875,-8.20375 2.3575,0 4.49125,0.99625 5.98875,2.58875 1.8675,-0.36625 3.625,-1.05 5.2125,-1.9875 -0.61625,1.91375 -1.915,3.525 -3.60875,4.53625 1.66,-0.195 3.2425,-0.635 4.71125,-1.28875 -1.0975,1.645 -2.49,3.09 -4.09375,4.2475"/></symbol><symbol id="vimeo" viewBox="0 0 19.999374 17.451876"><path d="M 19.9,4.189 C 18.78125,10.484 12.53875,15.81525 10.66,17.034 8.78125,18.2515 7.0675,16.54525 6.4475,15.2565 5.735,13.784 3.60375,5.814 3.04625,5.15275 2.4875,4.494 0.81125,5.814 0.81125,5.814 L 0,4.749 c 0,0 3.40125,-4.0625 5.98875,-4.57125 2.745,-0.53875 2.74125,4.215 3.4025,6.8525 0.63875,2.5525 1.0675,4.0125 1.625,4.0125 0.55875,0 1.62375,-1.4225 2.79125,-3.60375 1.16875,-2.18375 -0.05,-4.11375 -2.335,-2.7425 C 12.385,-0.786 21.0175,-2.10475 19.9,4.189"/></symbol><symbol id="youtube" viewBox="0 0 17.5 12.5"><path d="m 6.943375,8.55525 -0.00125,-4.99375 4.72875,2.50625 -4.7275,2.4875 z M 17.324625,2.6965 c 0,0 -0.17,-1.225 -0.695,-1.76375 -0.665,-0.7075 -1.41125,-0.71125 -1.75375,-0.7525 -2.44875,-0.18 -6.1225,-0.18 -6.1225,-0.18 l -0.0075,0 c 0,0 -3.6725,0 -6.1225,0.18 -0.34125,0.04125 -1.0875,0.045 -1.7525,0.7525 -0.525,0.53875 -0.69625,1.76375 -0.69625,1.76375 0,0 -0.175,1.43875 -0.175,2.87625 l 0,1.34875 c 0,1.4375 0.175,2.87625 0.175,2.87625 0,0 0.17125,1.225 0.69625,1.76375 0.665,0.7075 1.54,0.68625 1.92875,0.76 1.4,0.13625 5.95,0.17875 5.95,0.17875 0,0 3.6775,-0.0062 6.12625,-0.18625 0.3425,-0.04125 1.08875,-0.045 1.75375,-0.7525 0.525,-0.53875 0.695,-1.76375 0.695,-1.76375 0,0 0.175,-1.43875 0.175,-2.87625 l 0,-1.34875 c 0,-1.4375 -0.175,-2.87625 -0.175,-2.87625"/></symbol></svg>